<svg height="496pt" viewBox="0 0 496 496" width="496pt" xmlns="http://www.w3.org/2000/svg"><path d="m168 296h-8v160h176v-160zm0 0" fill="#ffeaa7"/><path d="m297.761719 326.320312h-.082031l-75.359376 75.359376v.082031c-10.320312-5.28125-18.800781-13.761719-24.082031-24.082031h.082031l75.359376-75.359376v-.082031c10.320312 5.28125 18.800781 13.761719 24.082031 24.082031zm0 0" fill="#fcd770"/><path d="m304 352c0 30.960938-25.039062 56-56 56-9.28125 0-18-2.238281-25.679688-6.238281v-.082031l75.359376-75.359376h.082031c4 7.679688 6.238281 16.398438 6.238281 25.679688zm0 0" fill="#e6e9ed"/><path d="m248 296c9.28125 0 18 2.238281 25.679688 6.238281v.082031l-75.359376 75.359376h-.082031c-4-7.679688-6.238281-16.398438-6.238281-25.679688 0-30.960938 25.039062-56 56-56zm0 0" fill="#e6e9ed"/><path d="m384 296c26.480469 0 48 21.519531 48 48v112h-64v-160zm0 0" fill="#ffeaa7"/><path d="m128 296v160h-64v-112c0-26.480469 21.519531-48 48-48zm0 0" fill="#ffeaa7"/><path d="m368 56v16h-240v-16c0-8.800781 7.199219-16 16-16h208c8.800781 0 16 7.199219 16 16zm0 0" fill="#ef7385"/><path d="m320 24v16h-144v-16c0-8.800781 7.199219-16 16-16h112c8.800781 0 16 7.199219 16 16zm0 0" fill="#ccd1d9"/><path d="m464 472v16h-432v-16c0-8.800781 7.199219-16 16-16h400c8.800781 0 16 7.199219 16 16zm0 0" fill="#ef7385"/><path d="m121.679688 150.800781c-3.121094.800781-6.320313 1.199219-9.679688 1.199219-22.078125 0-40-17.921875-40-40 0-17.921875 11.761719-33.121094 28-38.238281-22.878906 4.160156-43.359375 15.277343-59.199219 31.039062-15.761719 15.839844-26.878906 36.320313-31.039062 59.199219l-1.601563 14.558594c-.082031 1.839844-.160156 3.601562-.160156 5.441406 0 57.441406 43.28125 104.800781 98.960938 111.199219l.960937-7.4375c-20.160156-2-35.921875-19.042969-35.921875-39.761719 0-22.078125 17.921875-40 40-40-5.039062-6.640625-8-14.960938-8-24 0-13.839844 7.039062-26 17.679688-33.199219zm0 0" fill="#e6e9ed"/><path d="m389.039062 72.800781c-4.238281-.5625-8.640624-.800781-13.039062-.800781h-256c-1.839844 0-3.601562.078125-5.441406.160156 20.882812 1.28125 37.441406 18.640625 37.441406 39.839844 0 13.761719-7.039062 26-17.601562 33.199219 3.121093-.800781 6.242187-1.199219 9.601562-1.199219 22.078125 0 40 17.921875 40 40 0 13.039062-6.320312 24.71875-16 32 22.078125 0 40 17.921875 40 40s-17.921875 40-40 40h168c-22.078125 0-40-17.921875-40-40 0-17.199219 10.878906-31.839844 26.078125-37.519531-6.238281-7.039063-10.078125-16.320313-10.078125-26.480469 0-22.078125 17.921875-40 40-40 3.359375 0 6.558594.398438 9.679688 1.199219-10.640626-7.199219-17.679688-19.359375-17.679688-33.199219 0-22.078125 17.921875-40 40-40 1.359375 0 2.71875.078125 4.078125.238281 20.160156 2 35.921875 19.042969 35.921875 39.761719 0 22.078125-17.921875 40-40 40-3.359375 0-6.480469-.398438-9.601562-1.199219 10.5625 7.199219 17.601562 19.4375 17.601562 33.199219 0 9.039062-2.960938 17.28125-8 24 22.078125 0 40 17.921875 40 40 0 17.921875-11.761719 33.121094-28 38.238281 22.878906-4.160156 43.359375-15.277343 59.199219-31.039062 20.242187-20.320313 32.800781-48.320313 32.800781-79.199219 0-57.441406-43.28125-104.800781-98.960938-111.199219zm0 0" fill="#e6e9ed"/><path d="m336 296h32v160h-32zm0 0" fill="#ef7385"/><path d="m128 296h32v160h-32zm0 0" fill="#ef7385"/><path d="m120 296c-4.398438 0-8.800781-.238281-13.039062-.800781l.960937-7.4375c1.359375.160156 2.71875.238281 4.078125.238281 22.078125 0 40-17.921875 40-40 0-9.039062-2.960938-17.28125-8-24 9.039062 0 17.359375-2.960938 24-8 22.078125 0 40 17.921875 40 40s-17.921875 40-40 40zm0 0" fill="#fcd770"/><path d="m424 120c0 22.078125-17.921875 40-40 40-3.359375 0-6.480469-.398438-9.601562-1.199219h-.078126c-3.839843-2.5625-8.082031-4.480469-12.640624-5.601562-10.640626-7.199219-17.679688-19.359375-17.679688-33.199219 0-22.078125 17.921875-40 40-40 1.359375 0 2.71875.078125 4.078125.238281 20.160156 2 35.921875 19.042969 35.921875 39.761719zm0 0" fill="#fcd770"/><g fill="#ffeaa7"><path d="m344 256c0 21.199219 16.558594 38.558594 37.441406 39.839844-1.839844.082031-3.601562.160156-5.441406.160156h-40c-22.078125 0-40-17.921875-40-40 0-17.199219 10.878906-31.839844 26.078125-37.519531 4.320313-1.601563 9.042969-2.480469 13.921875-2.480469 9.039062 0 17.199219 3.121094 23.921875 8.078125-9.683594 7.28125-15.921875 18.882813-15.921875 31.921875zm0 0"/><path d="m144 144c22.078125 0 40 17.921875 40 40 0 13.039062-6.320312 24.71875-16 32-6.640625 5.039062-14.960938 8-24 8-13.039062 0-24.71875-6.320312-32-16-5.039062-6.640625-8-14.960938-8-24 0-13.839844 7.039062-26 17.679688-33.199219 4.558593-1.121093 8.800781-3.039062 12.640624-5.601562h.078126c3.121093-.800781 6.242187-1.199219 9.601562-1.199219zm0 0"/><path d="m359.921875 224.078125c6.71875-5.039063 15.039063-8.078125 24.078125-8.078125 22.078125 0 40 17.921875 40 40 0 17.921875-11.761719 33.121094-28 38.238281-.078125-.078125-.078125-.078125-.078125 0-4.640625.800781-9.363281 1.363281-14.160156 1.601563-.160157.082031-.242188.082031-.320313 0-20.882812-1.28125-37.441406-18.640625-37.441406-39.839844 0-13.039062 6.238281-24.640625 15.921875-31.921875zm0 0"/></g><path d="m488 184c0 22.089844-17.910156 40-40 40s-40-17.910156-40-40 17.910156-40 40-40 40 17.910156 40 40zm0 0" fill="#ffc729"/><path d="m48 136c22.078125 0 40 17.921875 40 40s-17.921875 40-40 40c-21.199219 0-38.558594-16.558594-39.839844-37.441406-.082031-.078125-.082031-.160156 0-.320313.238282-4.796875.800782-9.519531 1.601563-14.160156.078125 0 .078125 0 0-.078125 5.117187-16.238281 20.316406-28 38.238281-28zm0 0" fill="#ffeaa7"/><path d="m144 224c5.039062 6.71875 8 14.960938 8 24 0 22.078125-17.921875 40-40 40-1.359375 0-2.71875-.078125-4.078125-.238281-20.160156-2-35.921875-19.042969-35.921875-39.761719 0-22.078125 17.921875-40 40-40 7.28125 9.679688 18.960938 16 32 16zm0 0" fill="#fcd770"/><path d="m374.398438 158.800781c10.5625 7.199219 17.601562 19.4375 17.601562 33.199219 0 9.039062-2.960938 17.28125-8 24-9.039062 0-17.359375 3.039062-24.078125 8.078125-6.722656-4.957031-14.882813-8.078125-23.921875-8.078125-4.878906 0-9.601562.878906-13.921875 2.480469-6.238281-7.039063-10.078125-16.320313-10.078125-26.480469 0-22.078125 17.921875-40 40-40 3.359375 0 6.558594.398438 9.679688 1.199219 4.558593 1.121093 8.800781 3.039062 12.640624 5.601562zm0 0" fill="#fcd770"/><path d="m114.558594 72.160156c20.882812 1.28125 37.441406 18.640625 37.441406 39.839844 0 13.761719-7.039062 26-17.601562 33.199219-.078126 0-.078126 0-.078126 0-3.839843 2.5625-8.082031 4.480469-12.640624 5.601562-3.121094.800781-6.320313 1.199219-9.679688 1.199219-22.078125 0-40-17.921875-40-40 0-17.921875 11.761719-33.121094 28-38.238281.078125.078125.078125.078125.078125 0 4.640625-.800781 9.363281-1.363281 14.160156-1.601563.160157-.082031.242188-.082031.320313 0zm0 0" fill="#fcd770"/><path d="m448 448h-8v-104c0-19.433594-9.960938-36.574219-25.039062-46.625 45.589843-15.71875 78.734374-58.109375 80.792968-108.480469.167969-1.605469.246094-3.238281.246094-4.894531s-.078125-3.289062-.246094-4.902344c-2.601562-63.890625-55.242187-115.097656-119.753906-115.097656v-8c0-13.230469-10.769531-24-24-24h-24v-8c0-13.230469-10.769531-24-24-24h-112c-13.230469 0-24 10.769531-24 24v8h-24c-13.230469 0-24 10.769531-24 24v8c-1.351562 0-2.65625.160156-4 .199219-1.320312-.101563-2.648438-.199219-4-.199219-4.929688 0-9.6875.753906-14.167969 2.136719-48.40625 9.085937-86.609375 47.289062-95.695312 95.695312-1.382813 4.480469-2.136719 9.238281-2.136719 14.167969 0 1.351562.0976562 2.679688.199219 4-.039063 1.34375-.199219 2.648438-.199219 4 0 52.519531 33.960938 97.152344 81.039062 113.375-15.078124 10.050781-25.039062 27.191406-25.039062 46.625v104h-8c-13.230469 0-24 10.769531-24 24v24h448v-24c0-13.230469-10.769531-24-24-24zm-24-104v104h-48v-144h8c22.054688 0 40 17.945312 40 40zm-406.414062-177.425781c4.046874-13.03125 16.070312-22.574219 30.414062-22.574219 17.648438 0 32 14.351562 32 32s-14.351562 32-32 32c-16.726562 0-30.34375-12.953125-31.726562-29.328125.207031-4.105469.628906-8.136719 1.3125-12.097656zm62.414062-54.574219c0-14.34375 9.542969-26.367188 22.574219-30.414062 3.960937-.675782 8-1.105469 12.097656-1.3125 16.375 1.382812 29.328125 15 29.328125 31.726562 0 17.648438-14.351562 32-32 32s-32-14.351562-32-32zm368 40c17.648438 0 32 14.351562 32 32s-14.351562 32-32 32-32-14.351562-32-32 14.351562-32 32-32zm-64 0c-2.289062 0-4.558594-.289062-6.785156-.769531-3.679688-2.277344-7.664063-4.085938-11.910156-5.320313-8.328126-6.015625-13.304688-15.597656-13.304688-25.910156 0-17.648438 14.351562-32 32-32s32 14.351562 32 32-14.351562 32-32 32zm9.425781 134.414062c-3.960937.675782-8 1.105469-12.097656 1.3125-16.375-1.382812-29.328125-15-29.328125-31.726562 0-17.648438 14.351562-32 32-32s32 14.351562 32 32c0 14.34375-9.542969 26.367188-22.574219 30.414062zm-57.425781 1.585938c-17.648438 0-32-14.351562-32-32s14.351562-32 32-32c3.648438 0 7.222656.6875 10.640625 1.9375-6.640625 8.230469-10.640625 18.6875-10.640625 30.0625 0 12.304688 4.6875 23.496094 12.320312 32zm-16-96c0-17.648438 14.351562-32 32-32s32 14.351562 32 32c0 5.800781-1.609375 11.320312-4.511719 16.230469-7.128906.671875-13.777343 2.929687-19.65625 6.378906-7.3125-4.273437-15.417969-6.609375-23.832031-6.609375-3.734375 0-7.359375.472656-10.847656 1.28125-3.3125-5.128906-5.152344-11.097656-5.152344-17.28125zm16-72c0 8.929688 2.542969 17.472656 7.039062 24.871094-22.191406 4.207031-39.039062 23.722656-39.039062 47.128906 0 8.328125 2.257812 16.390625 6.289062 23.535156-13.378906 8.527344-22.289062 23.457032-22.289062 40.464844 0 12.304688 4.6875 23.496094 12.320312 32h-96.640624c7.632812-8.503906 12.320312-19.695312 12.320312-32 0-20.910156-13.464844-38.695312-32.160156-45.257812 5.152344-7.644532 8.160156-16.847657 8.160156-26.742188 0-23.398438-16.832031-42.910156-39.023438-47.128906 4.421876-7.261719 7.023438-15.757813 7.023438-24.871094 0-12.304688-4.6875-23.496094-12.320312-32h209.839843c-12.953125 8.609375-21.519531 23.3125-21.519531 40zm-40 232c0 26.472656-21.527344 48-48 48-3.894531 0-7.664062-.519531-11.289062-1.398438l57.898437-57.898437c.871094 3.632813 1.390625 7.402344 1.390625 11.296875zm-74.984375 39.671875c-4.984375-3.398437-9.289063-7.703125-12.6875-12.6875l66.648437-66.648437c4.984376 3.398437 9.289063 7.703124 12.6875 12.6875zm-21.015625-39.671875c0-26.472656 21.527344-48 48-48 3.894531 0 7.664062.519531 11.289062 1.398438l-57.898437 57.898437c-.871094-3.632813-1.390625-7.402344-1.390625-11.296875zm-56-136c-17.648438 0-32-14.351562-32-32 0-10.3125 4.976562-19.894531 13.304688-25.921875 4.238281-1.222656 8.230468-3.03125 11.902343-5.308594 2.226563-.480469 4.496094-.769531 6.792969-.769531 17.648438 0 32 14.351562 32 32s-14.351562 32-32 32zm-4.511719 15.769531c2.902344 4.910157 4.511719 10.429688 4.511719 16.230469 0 17.648438-14.351562 32-32 32s-32-14.351562-32-32c0-16.488281 12.585938-29.953125 28.632812-31.65625 7.824219 8.550781 18.664063 14.289062 30.855469 15.425781zm20.511719 16.230469c0-6.175781-1.289062-12.113281-3.511719-17.703125 4.894531-1.320313 9.488281-3.375 13.640625-6.082031 16.632813 1.113281 29.871094 14.863281 29.871094 31.785156 0 17.648438-14.351562 32-32 32h-29.519531c12.953125-8.609375 21.519531-23.3125 21.519531-40zm-8 56v144h-16v-144zm16 0h37.808594c-13.335938 11.734375-21.808594 28.878906-21.808594 48 0 35.289062 28.710938 64 64 64s64-28.710938 64-64c0-19.121094-8.472656-36.265625-21.808594-48h37.808594v144h-160zm176 0h16v144h-16zm84.632812-30.457031c2.152344-5.4375 3.367188-11.351563 3.367188-17.542969 0-22.144531-15.089844-40.777344-35.511719-46.296875 2.222657-5.589844 3.511719-11.527344 3.511719-17.703125 0-9.113281-2.601562-17.609375-7.023438-24.871094 4.167969-.792968 8.128907-2.144531 11.839844-3.945312-3.054687 6.3125-4.816406 13.351562-4.816406 20.816406 0 26.472656 21.527344 48 48 48 8.335938 0 16.175781-2.144531 23.015625-5.894531-8.855469 19.894531-23.769531 36.453125-42.382813 47.4375zm42.382813-131.648438c-6.839844-3.75-14.679687-5.894531-23.015625-5.894531-7.464844 0-14.503906 1.761719-20.816406 4.816406 3.054687-6.3125 4.816406-13.351562 4.816406-20.816406 0-10.945312-3.71875-21.007812-9.902344-29.089844 21.65625 10.769532 39.046875 28.808594 48.917969 50.984375zm-287.015625-117.894531c0-4.40625 3.59375-8 8-8h112c4.40625 0 8 3.59375 8 8v8h-128zm-48 32c0-4.40625 3.59375-8 8-8h208c4.40625 0 8 3.59375 8 8v8h-224zm-68.632812 38.457031c-2.152344 5.4375-3.367188 11.351563-3.367188 17.542969 0 7.464844 1.761719 14.503906 4.816406 20.816406-6.3125-3.054687-13.351562-4.816406-20.816406-4.816406-6.191406 0-12.105469 1.214844-17.542969 3.367188 8.984375-15.214844 21.695313-27.925782 36.910157-36.910157zm-46.414063 121.160157c7.703125 5.277343 17.015625 8.382812 27.046875 8.382812 26.472656 0 48-21.527344 48-48 0-7.464844-1.761719-14.503906-4.816406-20.816406 3.71875 1.800781 7.679687 3.152344 11.855468 3.945312-4.496093 7.398438-7.039062 15.941406-7.039062 24.871094 0 6.265625 1.238281 12.230469 3.433594 17.726562-20.386719 5.546876-35.433594 24.160157-35.433594 46.273438 0 10.945312 3.71875 21.007812 9.902344 29.089844-24.992188-12.425782-44.335938-34.539063-52.949219-61.472656zm51.046875 128.382812c0-22.054688 17.945312-40 40-40h8v144h-48zm384 136h-416v-8c0-4.40625 3.59375-8 8-8h400c4.40625 0 8 3.59375 8 8zm0 0"/><path d="m248 224c-8.824219 0-16-7.175781-16-16h-16c0 14.863281 10.238281 27.289062 24 30.863281v17.136719h16v-16h24v-32c0-17.648438-14.351562-32-32-32-8.824219 0-16-7.175781-16-16v-16h16c8.824219 0 16 7.175781 16 16h16c0-14.863281-10.238281-27.289062-24-30.863281v-17.136719h-16v16h-24v32c0 17.648438 14.351562 32 32 32 8.824219 0 16 7.175781 16 16v16zm0 0"/></svg>