<svg height="512" viewBox="0 0 64 64" width="512" xmlns="http://www.w3.org/2000/svg"><g id="Filled_outline" data-name="Filled outline"><path d="m3 13h50v24h-50z" fill="#e1462b"/><path d="m53 21h4v8h-4z" fill="#aabece"/><path d="m57 23h4v4h-4z" fill="#5a6470"/><path d="m60 10h2v13h-2z" fill="#32b1cc"/><path d="m57 3h4v8h-4z" fill="#fcf05a"/><circle cx="50" cy="29" fill="#fcf05a" r="3"/><circle cx="46" cy="34" fill="#f4f4e6" r="3"/><circle cx="15" cy="34" fill="#f4f4e6" r="3"/><circle cx="21" cy="34" fill="#fcf05a" r="3"/><circle cx="35" cy="34" fill="#fcf05a" r="3"/><circle cx="6" cy="34" fill="#fcf05a" r="3"/><circle cx="10" cy="30" fill="#ddce45" r="3"/><path d="m3 57h50v4h-50z" fill="#301a12"/><path d="m5 37h46v4h-46z" fill="#ad6327"/><path d="m12 57h-4l4-16h4z" fill="#66342e"/><path d="m48 57h-4l-4-16h4z" fill="#66342e"/><g fill="#aa2e1d"><path d="m8 13h2v10h-2z"/><path d="m14 13h2v12h-2z"/><path d="m47 13h2v11h-2z"/><path d="m21 13h2v5h-2z"/><path d="m21 22h2v6h-2z"/><path d="m28 13h2v5h-2z"/><path d="m28 22h2v8h-2z"/><path d="m35 13h2v5h-2z"/><path d="m35 22h2v6h-2z"/><path d="m41 13h2v16h-2z"/></g><circle cx="29" cy="54" fill="#dd3e46" r="3"/><path d="m30 44h2v4h-2z" fill="#87cee9"/><path d="m25 44h2v6h-2z" fill="#87cee9"/><path d="m56 32h2v10h-2z" fill="#87cee9"/><path d="m60 30h2v9h-2z" fill="#87cee9"/><path d="m56 44h2v2h-2z" fill="#87cee9"/><path d="m60 41h2v2h-2z" fill="#87cee9"/><path d="m15 18h27v4h-27z" fill="#601a11"/><path d="m56 12h4v10h-2v-2h-4v-8h-52v26h2v4h6.719l-3.5 14h-5.219v6h52v-6h-5.219l-3.5-14h6.719v-4h2v-8h4v-2h4v-26h-6zm-10 24a2 2 0 1 1 2-2 2 2 0 0 1 -2 2zm2-7a2 2 0 1 1 2 2 2 2 0 0 1 -2-2zm-7-8h-25v-2h25zm-11-4v-3h5v3zm-2 0h-5v-3h5zm-7 0h-5v-3h5zm16 0v-3h4v3zm-29-3v9h2v-9h4v11h2v-2h5v5h2v-5h5v7h2v-7h5v5h2v-5h4v6h2v-15h4v10h2v-10h3v11.556a3.959 3.959 0 0 0 -2-.556 4 4 0 0 0 -4 4 3.957 3.957 0 0 0 .147 1.015c-.05 0-.1-.015-.147-.015a4 4 0 0 0 -4 4 3.959 3.959 0 0 0 .556 2h-4.112a3.959 3.959 0 0 0 .556-2 4 4 0 0 0 -8 0 3.959 3.959 0 0 0 .556 2h-7.112a3.959 3.959 0 0 0 .556-2 3.983 3.983 0 0 0 -7-2.618 3.859 3.859 0 0 0 -4.015-1.235c0-.05.015-.1.015-.147a4 4 0 0 0 -8 0 3.959 3.959 0 0 0 -2 .556v-16.556zm25 20a2 2 0 1 1 2 2 2 2 0 0 1 -2-2zm-29 0a2 2 0 0 1 2-2 1.929 1.929 0 0 1 .617.112 4.017 4.017 0 0 0 1.271 1.271 1.929 1.929 0 0 1 .112.617 2 2 0 0 1 -4 0zm6-2a2 2 0 1 1 2-2 2 2 0 0 1 -2 2zm0 2a3.957 3.957 0 0 0 1.015-.147c0 .05-.015.1-.015.147a3.959 3.959 0 0 0 .556 2h-2.112a3.959 3.959 0 0 0 .556-2zm3 0a2 2 0 1 1 2 2 2 2 0 0 1 -2-2zm6 0a2 2 0 1 1 2 2 2 2 0 0 1 -2-2zm-6.219 8h1.938l-3.5 14h-1.938zm14.219 12a2 2 0 1 1 2 2 2 2 0 0 1 -2-2zm2-4a4 4 0 0 0 -4 4 3.959 3.959 0 0 0 .556 2h-12.275l3.5-14h22.438l3.5 14h-10.275a3.959 3.959 0 0 0 .556-2 4 4 0 0 0 -4-4zm23 8v2h-48v-2zm-5.281-2h-1.938l-3.5-14h1.938zm3.281-16h-44v-2h44zm-.556-4a3.773 3.773 0 0 0 .409-3.015c.05 0 .1.015.147.015a3.959 3.959 0 0 0 2-.556v3.556zm4.556-8v-6h2v6zm6-2h-2v-2h2zm-2-22h2v6h-2z"/><path d="m30 44h2v4h-2z"/><path d="m25 44h2v6h-2z"/><path d="m56 32h2v10h-2z"/><path d="m60 30h2v9h-2z"/><path d="m56 44h2v2h-2z"/><path d="m60 41h2v2h-2z"/></g></svg>