<?xml version="1.0" encoding="iso-8859-1"?>
<!-- Generator: Adobe Illustrator 19.0.0, SVG Export Plug-In . SVG Version: 6.00 Build 0)  -->
<svg version="1.1" id="Layer_1" xmlns="http://www.w3.org/2000/svg" xmlns:xlink="http://www.w3.org/1999/xlink" x="0px" y="0px"
	 viewBox="0 0 512 512" style="enable-background:new 0 0 512 512;" xml:space="preserve">
<polygon style="fill:#C6C5CB;" points="140.276,408.375 24.554,207.937 140.276,7.5 371.722,7.5 487.444,207.937 371.722,408.375 
	"/>
<polygon style="fill:#E0E0E2;" points="151.718,388.557 47.437,207.937 151.718,27.318 360.28,27.318 464.561,207.937 
	360.28,388.557 "/>
<circle style="fill:#2487FF;" cx="255.999" cy="217.62" r="52.948"/>
<circle style="fill:#9BC9FD;" cx="255.999" cy="217.62" r="32.14"/>
<path style="fill:#59A4FF;" d="M255.999,185.479c-0.112,0-0.222,0.007-0.333,0.008v64.259c0.112,0.001,0.221,0.008,0.333,0.008
	c17.749,0,32.138-14.389,32.138-32.138C288.137,199.868,273.748,185.479,255.999,185.479z"/>
<g>
	<circle style="fill:#FEDA44;" cx="161.71" cy="379.85" r="28.521"/>
	<circle style="fill:#FEDA44;" cx="210.889" cy="351.33" r="28.521"/>
	<circle style="fill:#FEDA44;" cx="260.619" cy="379.85" r="28.521"/>
	<circle style="fill:#FEDA44;" cx="345.749" cy="379.85" r="28.521"/>
	<circle style="fill:#FEDA44;" cx="382.099" cy="334.1" r="28.521"/>
	<circle style="fill:#FEDA44;" cx="354.899" cy="227.48" r="28.521"/>
	<circle style="fill:#FEDA44;" cx="400.829" cy="261.99" r="28.521"/>
	<circle style="fill:#FEDA44;" cx="316.659" cy="276.12" r="28.521"/>
	<circle style="fill:#FEDA44;" cx="174.529" cy="131.88" r="28.521"/>
	<circle style="fill:#FEDA44;" cx="326.379" cy="74.842" r="28.521"/>
	<circle style="fill:#FEDA44;" cx="159.749" cy="252.97" r="28.521"/>
	<circle style="fill:#FEDA44;" cx="302.759" cy="334.1" r="28.521"/>
	<circle style="fill:#FEDA44;" cx="163.66" cy="319.78" r="28.521"/>
	<circle style="fill:#FEDA44;" cx="174.529" cy="131.88" r="28.521"/>
</g>
<g>
	<path style="fill:#EEBF00;" d="M163.66,131.884c0-12.671,8.265-23.405,19.696-27.123c-2.78-0.904-5.744-1.399-8.825-1.399
		c-15.752,0-28.521,12.769-28.521,28.521s12.769,28.521,28.521,28.521c3.081,0,6.045-0.495,8.825-1.399
		C171.924,155.289,163.66,144.554,163.66,131.884z"/>
	<path style="fill:#EEBF00;" d="M315.635,74.842c0-12.671,8.265-23.405,19.696-27.123c-2.78-0.904-5.744-1.399-8.825-1.399
		c-15.752,0-28.521,12.769-28.521,28.521s12.769,28.521,28.521,28.521c3.081,0,6.045-0.495,8.825-1.399
		C323.901,98.247,315.635,87.512,315.635,74.842z"/>
	<path style="fill:#EEBF00;" d="M344.157,227.479c0-12.671,8.265-23.405,19.696-27.123c-2.78-0.904-5.744-1.399-8.825-1.399
		c-15.752,0-28.521,12.769-28.521,28.521S339.275,256,355.027,256c3.081,0,6.045-0.495,8.825-1.399
		C352.422,250.884,344.157,240.149,344.157,227.479z"/>
	<path style="fill:#EEBF00;" d="M389.957,261.988c0-12.671,8.265-23.405,19.696-27.123c-2.78-0.904-5.744-1.399-8.825-1.399
		c-15.752,0-28.521,12.769-28.521,28.521s12.769,28.521,28.521,28.521c3.081,0,6.045-0.495,8.825-1.399
		C398.222,285.393,389.957,274.659,389.957,261.988z"/>
	<path style="fill:#EEBF00;" d="M371.284,334.102c0-12.671,8.265-23.405,19.696-27.123c-2.78-0.904-5.744-1.399-8.825-1.399
		c-15.752,0-28.521,12.769-28.521,28.521s12.769,28.521,28.521,28.521c3.081,0,6.045-0.495,8.825-1.399
		C379.549,357.507,371.284,346.773,371.284,334.102z"/>
	<path style="fill:#EEBF00;" d="M291.885,334.102c0-12.671,8.265-23.405,19.696-27.123c-2.78-0.904-5.744-1.399-8.825-1.399
		c-15.752,0-28.521,12.769-28.521,28.521s12.769,28.521,28.521,28.521c3.081,0,6.045-0.495,8.825-1.399
		C300.15,357.507,291.885,346.773,291.885,334.102z"/>
	<path style="fill:#EEBF00;" d="M334.881,379.854c0-12.671,8.265-23.405,19.696-27.123c-2.78-0.904-5.744-1.399-8.825-1.399
		c-15.752,0-28.521,12.769-28.521,28.521s12.769,28.521,28.521,28.521c3.081,0,6.045-0.495,8.825-1.399
		C343.147,403.259,334.881,392.524,334.881,379.854z"/>
	<path style="fill:#EEBF00;" d="M249.745,379.854c0-12.671,8.265-23.405,19.696-27.123c-2.78-0.904-5.744-1.399-8.825-1.399
		c-15.752,0-28.521,12.769-28.521,28.521s12.769,28.521,28.521,28.521c3.081,0,6.045-0.495,8.825-1.399
		C258.01,403.259,249.745,392.524,249.745,379.854z"/>
	<path style="fill:#EEBF00;" d="M200.022,351.332c0-12.671,8.265-23.405,19.696-27.123c-2.78-0.904-5.744-1.399-8.825-1.399
		c-15.752,0-28.521,12.769-28.521,28.521s12.769,28.521,28.521,28.521c3.081,0,6.045-0.495,8.825-1.399
		C208.287,374.738,200.022,364.003,200.022,351.332z"/>
	<path style="fill:#EEBF00;" d="M150.835,379.854c0-12.671,8.265-23.405,19.696-27.123c-2.78-0.904-5.744-1.399-8.825-1.399
		c-15.752,0-28.521,12.769-28.521,28.521s12.769,28.521,28.521,28.521c3.081,0,6.045-0.495,8.825-1.399
		C159.1,403.259,150.835,392.524,150.835,379.854z"/>
	<path style="fill:#EEBF00;" d="M152.788,319.777c0-12.671,8.265-23.405,19.696-27.123c-2.78-0.904-5.744-1.399-8.825-1.399
		c-15.752,0-28.521,12.769-28.521,28.521s12.769,28.521,28.521,28.521c3.081,0,6.045-0.495,8.825-1.399
		C161.053,343.182,152.788,332.448,152.788,319.777z"/>
	<path style="fill:#EEBF00;" d="M148.88,252.966c0-12.671,8.265-23.405,19.696-27.123c-2.78-0.904-5.744-1.399-8.825-1.399
		c-15.752,0-28.521,12.769-28.521,28.521s12.769,28.521,28.521,28.521c3.081,0,6.045-0.495,8.825-1.399
		C157.145,276.371,148.88,265.636,148.88,252.966z"/>
</g>
<rect x="55.299" y="479.51" style="fill:#57565C;" width="401.41" height="24.993"/>
<path d="M381.022,407.267l29.46-51.026c2.063-2.639,3.766-5.571,5.036-8.723l80.587-139.58L376.052,0H135.947L15.894,207.938
	l115.083,199.329l-38.942,64.74h-44.24V512h416.408v-39.993h-44.239L381.022,407.267z M140.684,379.854
	c0-11.036,8.554-20.093,19.376-20.938l-17.628,29.306C141.313,385.655,140.684,382.828,140.684,379.854z M159.751,273.987
	c-11.591,0-21.021-9.43-21.021-21.021s9.43-21.021,21.021-21.021s21.021,9.43,21.021,21.021S171.341,273.987,159.751,273.987z
	 M163.66,298.756c11.033,0,20.089,8.55,20.937,19.369l-12.594,20.937c-2.56,1.112-5.379,1.736-8.343,1.736
	c-11.591,0-21.021-9.43-21.021-21.021S152.068,298.756,163.66,298.756z M400.828,240.967c11.591,0,21.021,9.43,21.021,21.021
	s-9.43,21.021-21.021,21.021s-21.021-9.43-21.021-21.021S389.237,240.967,400.828,240.967z M354.897,248.5
	c-11.591,0-21.021-9.43-21.021-21.021s9.43-21.021,21.021-21.021s21.021,9.43,21.021,21.021S366.488,248.5,354.897,248.5z
	 M337.679,276.124c0,11.591-9.43,21.021-21.021,21.021c-0.653,0-1.297-0.039-1.935-0.098l-17.458-29.023
	c3.178-7.581,10.673-12.921,19.394-12.921C328.249,255.103,337.679,264.533,337.679,276.124z M302.755,355.123
	c-11.591,0-21.021-9.43-21.021-21.021s9.43-21.021,21.021-21.021c1.506,0,2.973,0.166,4.39,0.469l15.815,26.291
	C320.454,348.648,312.355,355.123,302.755,355.123z M255.999,263.065c-25.061,0-45.449-20.388-45.449-45.449
	c0-25.06,20.388-45.448,45.449-45.448s45.449,20.388,45.449,45.448C301.448,242.677,281.06,263.065,255.999,263.065z
	 M255.999,278.065c8.837,0,17.229-1.922,24.804-5.345c-0.106,1.121-0.165,2.255-0.165,3.404c0,9.342,3.576,17.864,9.43,24.271
	c-13.619,5.144-23.333,18.31-23.333,33.707c0,3.676,0.557,7.225,1.585,10.568c-2.484-0.543-5.059-0.838-7.703-0.838
	c-4.968,0-9.704,1.011-14.014,2.838c-2.295-17.666-17.428-31.359-35.709-31.359c-2.603,0-5.14,0.284-7.588,0.811l26.49-44.038
	C237.727,275.916,246.617,278.065,255.999,278.065z M193.785,363.502c-0.591-1.155-1.241-2.275-1.949-3.354
	c-1.248-2.685-1.964-5.665-1.964-8.816c0-3.495,0.87-6.786,2.385-9.689c0.933-1.218,1.788-2.497,2.562-3.83
	c3.859-4.581,9.629-7.502,16.074-7.502c11.591,0,21.021,9.43,21.021,21.021s-9.43,21.021-21.021,21.021
	C203.839,372.354,197.6,368.849,193.785,363.502z M153.368,399.141l21.462-35.681c1.515,1.216,2.852,2.639,3.982,4.223
	c0.591,1.155,1.241,2.275,1.949,3.354c1.247,2.685,1.964,5.665,1.964,8.816c0,11.591-9.43,21.021-21.021,21.021
	C158.743,400.875,155.926,400.252,153.368,399.141z M197.389,384.717c4.174,1.694,8.73,2.636,13.504,2.636
	c4.968,0,9.704-1.011,14.014-2.838c0.786,6.05,3.076,11.632,6.486,16.359h-40.464C194.3,396.2,196.578,390.69,197.389,384.717z
	 M239.595,379.854c0-11.591,9.43-21.021,21.021-21.021c11.591,0,21.021,9.43,21.021,21.021s-9.43,21.021-21.021,21.021
	C249.025,400.875,239.595,391.444,239.595,379.854z M295.052,369.285c2.483,0.543,5.059,0.838,7.703,0.838
	c2.973,0,5.86-0.369,8.626-1.051c-1.071,3.406-1.65,7.027-1.65,10.782c0,7.842,2.526,15.1,6.797,21.021H289.84
	c4.271-5.921,6.797-13.179,6.797-21.021C296.637,376.177,296.081,372.629,295.052,369.285z M324.731,379.854
	c0-8.021,4.519-15.002,11.143-18.544l21.633,35.964c-3.357,2.273-7.403,3.602-11.754,3.602
	C334.161,400.875,324.731,391.444,324.731,379.854z M401.885,341.131l-3.806,6.592c-3.859,4.52-9.586,7.4-15.981,7.4
	c-11.591,0-21.021-9.43-21.021-21.021s9.43-21.021,21.021-21.021s21.021,9.43,21.021,21.021
	C403.119,336.57,402.669,338.929,401.885,341.131z M385.23,369.978l-3.635,6.296c-0.211-2.125-0.615-4.193-1.18-6.194
	c0.558,0.026,1.118,0.043,1.683,0.043C383.154,370.123,384.196,370.068,385.23,369.978z M366.773,379.854
	c0,1.112-0.112,2.196-0.279,3.261l-13.906-23.119C360.829,362.842,366.773,370.658,366.773,379.854z M144.606,15h222.785
	l111.393,192.938l-64.051,110.94c-5.748-12.272-18.212-20.796-32.635-20.796c-19.862,0-36.021,16.159-36.021,36.021
	c0,3.387,0.48,6.663,1.358,9.773c-0.558-0.026-1.118-0.043-1.683-0.043c-0.948,0-1.885,0.048-2.815,0.12l-4.276-7.109
	c0.069-0.906,0.115-1.819,0.115-2.742c0-9.342-3.576-17.864-9.43-24.271c13.619-5.144,23.333-18.31,23.333-33.707
	c0-4.557-0.859-8.915-2.41-12.931c1.517,0.195,3.059,0.307,4.628,0.307c3.438,0,6.761-0.494,9.913-1.398
	c0.062,19.81,16.194,35.908,36.018,35.908c19.862,0,36.021-16.159,36.021-36.021s-16.159-36.021-36.021-36.021
	c-3.438,0-6.761,0.494-9.913,1.398c-0.062-19.81-16.195-35.908-36.018-35.908c-19.862,0-36.021,16.159-36.021,36.021
	c0,4.557,0.859,8.914,2.41,12.931c-1.517-0.195-3.059-0.307-4.628-0.307c-1.59,0-3.153,0.115-4.69,0.315
	c2.879-7.041,4.479-14.736,4.479-22.801c0-33.331-27.117-60.448-60.449-60.448s-60.449,27.117-60.449,60.448
	c0,18.573,8.426,35.209,21.649,46.306l-22.56,37.506c-4.394-7.391-11.356-13.08-19.647-15.836
	c12.263-5.752,20.78-18.211,20.78-32.627c0-19.862-16.159-36.021-36.021-36.021s-36.021,16.159-36.021,36.021
	c0,15.903,10.363,29.422,24.688,34.184c-12.263,5.752-20.78,18.211-20.78,32.628c0,12.122,6.025,22.856,15.231,29.388
	c-7.681,4.732-13.454,12.265-15.897,21.164L33.214,207.938L144.606,15z M143.303,415.875h225.393l33.764,56.132H109.538
	L143.303,415.875z M449.203,497H62.795v-9.993h386.408L449.203,497L449.203,497z"/>
<path d="M255.999,177.979c-21.856,0-39.638,17.781-39.638,39.638s17.782,39.638,39.638,39.638s39.638-17.782,39.638-39.638
	S277.855,177.979,255.999,177.979z M255.999,242.255c-13.585,0-24.638-11.053-24.638-24.638s11.053-24.638,24.638-24.638
	s24.638,11.052,24.638,24.638S269.584,242.255,255.999,242.255z"/>
<path d="M174.529,167.905c19.862,0,36.021-16.159,36.021-36.021s-16.159-36.021-36.021-36.021s-36.021,16.159-36.021,36.021
	S154.667,167.905,174.529,167.905z M174.529,110.863c11.591,0,21.021,9.43,21.021,21.021s-9.43,21.021-21.021,21.021
	s-21.021-9.43-21.021-21.021S162.938,110.863,174.529,110.863z"/>
<path d="M326.376,110.863c19.862,0,36.021-16.159,36.021-36.021s-16.159-36.021-36.021-36.021s-36.021,16.159-36.021,36.021
	C290.355,94.704,306.514,110.863,326.376,110.863z M326.376,53.82c11.591,0,21.021,9.43,21.021,21.021s-9.43,21.021-21.021,21.021
	s-21.021-9.43-21.021-21.021C305.355,63.25,314.785,53.82,326.376,53.82z"/>
<g>
</g>
<g>
</g>
<g>
</g>
<g>
</g>
<g>
</g>
<g>
</g>
<g>
</g>
<g>
</g>
<g>
</g>
<g>
</g>
<g>
</g>
<g>
</g>
<g>
</g>
<g>
</g>
<g>
</g>
</svg>
